<svg width="13" height="13" viewBox="0 0 15 14" fill="none  "  xmlns="http://www.w3.org/2000/svg">
<g id="fi:users" clip-path="url(#clip0_1_4970)">
<path id="Vector" d="M14.375 12.2499V11.0832C14.3746 10.5662 14.1902 10.064 13.8509 9.65537C13.5115 9.24677 13.0363 8.95493 12.5 8.82568" stroke="black" stroke-width="2" stroke-linecap="round" stroke-linejoin="round"/>
<path id="Vector_2" d="M10.625 12.25V11.0833C10.625 10.4645 10.3616 9.871 9.89277 9.43342C9.42393 8.99583 8.78804 8.75 8.125 8.75H3.125C2.46196 8.75 1.82607 8.99583 1.35723 9.43342C0.888392 9.871 0.625 10.4645 0.625 11.0833V12.25" stroke="black" stroke-width="2" stroke-linecap="round" stroke-linejoin="round"/>
<path id="Vector_3" d="M10 1.82568C10.5378 1.95419 11.0144 2.24609 11.3548 2.65536C11.6952 3.06464 11.8799 3.568 11.8799 4.0861C11.8799 4.6042 11.6952 5.10756 11.3548 5.51684C11.0144 5.92611 10.5378 6.21801 10 6.34652" stroke="black" stroke-width="2" stroke-linecap="round" stroke-linejoin="round"/>
<path id="Vector_4" d="M5.625 6.41667C7.00571 6.41667 8.125 5.372 8.125 4.08333C8.125 2.79467 7.00571 1.75 5.625 1.75C4.24429 1.75 3.125 2.79467 3.125 4.08333C3.125 5.372 4.24429 6.41667 5.625 6.41667Z" stroke="black" stroke-width="2" stroke-linecap="round" stroke-linejoin="round"/>
</g>
<defs>
<clipPath id="clip0_1_4970">
<rect width="14" height="14" fill="white"/>
</clipPath>
</defs>
</svg>
