<svg width="25" height="21" viewBox="0 0 25 21" fill="none" xmlns="http://www.w3.org/2000/svg">
<rect width="25" height="21" rx="5" fill="#E00525"/>
<g clip-path="url(#clip0_6_37545)">
<path d="M16.0277 7.90554V15.8982C16.0277 16.2705 15.6563 16.5771 15.2053 16.5771H8.82467C8.37365 16.5771 8.00222 16.2705 8.00222 15.8982V7.90554H16.0277ZM13.9451 8.7924V15.6683H14.4226V8.7924H13.9451ZM11.7828 8.7924V15.6683H12.2604V8.7924H11.7828ZM9.62059 8.7924V15.6683H10.0981V8.7924H9.62059ZM10.1512 6.05517V5.48583C10.1512 5.12452 10.4961 4.83984 10.9339 4.83984H13.1094C13.5471 4.83984 13.892 5.12452 13.892 5.48583V6.05517H16.293C16.7441 6.05517 17.1155 6.36174 17.1155 6.734V7.20481H6.92773V6.72306C6.92773 6.35079 7.29916 6.04422 7.75018 6.04422H10.1512V6.05517ZM10.9339 5.2778C10.8012 5.2778 10.6951 5.36539 10.6951 5.47488V6.04422H13.3614V5.47488C13.3614 5.36539 13.2553 5.2778 13.1226 5.2778H10.9339Z" fill="white"/>
</g>
<defs>
<clipPath id="clip0_6_37545">
<rect width="13" height="15" fill="white" transform="translate(6 3)"/>
</clipPath>
</defs>
</svg>
