<svg width="19" height="18" viewBox="0 0 19 18" fill="none" xmlns="http://www.w3.org/2000/svg">
<path d="M5.16353 11.7293V11.9793H5.41353H6.96804V17.553C3.11759 16.6255 0.25 13.1612 0.25 9.02256C0.25 4.18018 4.18018 0.25 9.02256 0.25C13.8649 0.25 17.7951 4.18018 17.7951 9.02256C17.7951 13.4809 14.4724 17.1571 10.1748 17.7197V11.9793H12.6316H12.8816V11.7293V9.02256V8.77256H12.6316H10.1748V7.21804C10.1748 6.85988 10.4689 6.56579 10.8271 6.56579H12.6316H12.8816V6.31579V3.60902V3.35902H12.6316H10.3759C8.49651 3.35902 6.96804 4.88749 6.96804 6.76692V8.77256H5.41353H5.16353V9.02256V11.7293Z" fill="white" stroke="#62909F" stroke-width="0.5"/>
</svg>
