<svg width="18" height="18" viewBox="0 0 18 18" fill="none" xmlns="http://www.w3.org/2000/svg">
<path d="M2 8.75H1.75V9C1.75 13.0381 4.96193 16.25 9 16.25C13.0381 16.25 16.25 13.0381 16.25 9V8.75H16H13H12.75V9C12.75 11.0619 11.0619 12.75 9 12.75C6.93807 12.75 5.25 11.0619 5.25 9V8.75H5H2ZM0.25 9C0.25 4.13807 4.13807 0.25 9 0.25C13.8619 0.25 17.75 4.13807 17.75 9C17.75 13.8619 13.8619 17.75 9 17.75C4.13807 17.75 0.25 13.8619 0.25 9ZM11.25 9C11.25 7.76193 10.2381 6.75 9 6.75C7.76193 6.75 6.75 7.76193 6.75 9C6.75 10.2381 7.76193 11.25 9 11.25C10.2381 11.25 11.25 10.2381 11.25 9ZM13 3.55C12.2756 3.55 11.55 4.14866 11.55 5C11.55 5.83807 12.1619 6.45 13 6.45C13.8513 6.45 14.45 5.72442 14.45 5C14.45 4.61869 14.2619 4.25831 14.0018 3.99822C13.7417 3.73814 13.3813 3.55 13 3.55Z" fill="white" stroke="#62909F" stroke-width="0.5"/>
</svg>
