<svg width="38" height="32" viewBox="0 0 38 32" fill="none" xmlns="http://www.w3.org/2000/svg">
<path d="M3.3079 27.1197C3.35054 27.1789 3.42327 27.2149 3.52194 27.2258C3.62061 27.2366 3.74327 27.222 3.88289 27.1827L17.4165 23.3406C17.6997 23.2603 18.0342 23.0847 18.3466 22.8525C18.659 22.6203 18.9236 22.3506 19.0822 22.1026C19.2408 21.8546 19.2804 21.6488 19.1923 21.5303C19.1043 21.4118 18.8957 21.3904 18.6126 21.4708L6.13486 25.0185L13.1292 14.0933C13.2077 13.9705 13.2578 13.8568 13.2767 13.7586C13.2956 13.6604 13.2829 13.5797 13.2393 13.521C13.1957 13.4623 13.1221 13.4269 13.0226 13.4167C12.9231 13.4064 12.7997 13.4217 12.6595 13.4615C12.5193 13.5013 12.365 13.5649 12.2054 13.6486C12.0458 13.7324 11.8841 13.8347 11.7294 13.9496C11.5748 14.0646 11.4302 14.19 11.304 14.3187C11.1778 14.4473 11.0724 14.5767 10.9939 14.6995L3.41327 26.5509C3.33545 26.6733 3.28609 26.7865 3.26801 26.8841C3.24993 26.9817 3.26349 27.0618 3.3079 27.1197Z" fill="#049561" stroke="#049561"/>
<path d="M3.30868 27.1199C3.3964 27.2379 3.6041 27.2592 3.88611 27.1791C4.16811 27.0991 4.50131 26.9242 4.81242 26.693L32.9647 5.76834C33.2758 5.53711 33.5393 5.26847 33.6973 5.02152C33.8552 4.77457 33.8947 4.56954 33.807 4.45152C33.7193 4.33351 33.5116 4.31219 33.2295 4.39225C32.9475 4.47231 32.6143 4.64719 32.3032 4.87842L4.15097 25.8031C3.83987 26.0343 3.57635 26.3029 3.41839 26.5499C3.26043 26.7968 3.22097 27.0019 3.30868 27.1199Z" fill="#049561" stroke="#049561"/>
</svg>
