<svg width="4" height="8" viewBox="0 0 4 8" fill="none" xmlns="http://www.w3.org/2000/svg">
<path d="M2.5 7V3H0.5V4H1.5V7H0V8H4V7H2.5ZM2 0C1.85166 0 1.70666 0.0439866 1.58332 0.126398C1.45999 0.208809 1.36386 0.325943 1.30709 0.462987C1.25032 0.600032 1.23547 0.750832 1.26441 0.896318C1.29335 1.0418 1.36478 1.17544 1.46967 1.28033C1.57456 1.38522 1.7082 1.45665 1.85368 1.48559C1.99917 1.51453 2.14997 1.49968 2.28701 1.44291C2.42406 1.38614 2.54119 1.29001 2.6236 1.16668C2.70601 1.04334 2.75 0.898336 2.75 0.75C2.75 0.551088 2.67098 0.360322 2.53033 0.21967C2.38968 0.0790175 2.19891 0 2 0Z" fill="#4F4F4F"/>
</svg>
