<svg width="25" height="21" viewBox="0 0 25 21" fill="none" xmlns="http://www.w3.org/2000/svg">
<rect width="25" height="21" rx="5" fill="#938AF5"/>
<g clip-path="url(#clip0_6_37539)">
<path d="M6.54102 10.5C6.54102 10.5 8.70768 5.5 12.4993 5.5C16.291 5.5 18.4577 10.5 18.4577 10.5C18.4577 10.5 16.291 15.5 12.4993 15.5C8.70768 15.5 6.54102 10.5 6.54102 10.5Z" stroke="white" stroke-width="2" stroke-linecap="round" stroke-linejoin="round"/>
<path d="M12.5 12.375C13.3975 12.375 14.125 11.5355 14.125 10.5C14.125 9.46447 13.3975 8.625 12.5 8.625C11.6025 8.625 10.875 9.46447 10.875 10.5C10.875 11.5355 11.6025 12.375 12.5 12.375Z" stroke="white" stroke-width="2" stroke-linecap="round" stroke-linejoin="round"/>
</g>
<defs>
<clipPath id="clip0_6_37539">
<rect width="13" height="15" fill="white" transform="translate(6 3)"/>
</clipPath>
</defs>
</svg>
